<svg width="115" height="159" viewBox="0 0 115 159" xmlns="http://www.w3.org/2000/svg">
    <g fill-rule="nonzero" fill="none">
        <g transform="translate(59)">
            <path d="M28.431.755S8.921-4.741 3.15 21.915c-5.77 26.654-1.374 40.12-1.374 40.12L45.33 56.95S57.697 8.86 28.431.755z" fill="#2F2E41"/>
            <ellipse fill="#FBBEBE" cx="39.03" cy="27.465" rx="1.853" ry="2.78"/>
        </g>
        <g transform="translate(0 8)">
            <path d="M100.642 43.644h2.632a23.428 23.428 0 0 1 3.509 19.3c-2.924 11.11-.585 13.158-.585 13.158s10.527 14.913 6.433 33.042c-4.094 18.13-2.924 20.176-2.924 20.176l-7.31-14.62-4.094-38.598 2.34-32.458z" fill="#1F6BD9"/>
            <path d="M91.431 29.462s-2.34 9.358-1.17 9.358 5.264 4.97 5.264 4.97l2.632 9.65-2.047 7.018-7.018-1.462-8.772-9.65-2.632-2.631-2.34-8.48s2.925-3.51.878-6.433c-2.047-2.924 15.205-2.34 15.205-2.34z" fill="#FBBEBE"/>
            <path d="M91.431 29.462s-2.34 9.358-1.17 9.358 5.264 4.97 5.264 4.97l2.632 9.65-2.047 7.018-7.018-1.462-8.772-9.65-2.632-2.631-2.34-8.48s2.925-3.51.878-6.433c-2.047-2.924 15.205-2.34 15.205-2.34z" fill="#624646" opacity=".1"/>
            <circle fill="#FBBEBE" cx="83.297" cy="20.855" r="14.455"/>
            <path d="M88.949.918s-5.496 14.565-18.961 20.61L67.79 8.613 88.949.918z" fill="#2F2E41"/>
            <path d="M20.668 55.487 14.235 44.96S7.291 29.596 2.32 35.151c-4.971 5.556 7.529 16.827 7.529 16.827l6.433 8.48 4.386-4.971z" fill="#FBBEBE"/>
            <path d="M94.648 56.657 82.367 41.159l-7.018-4.679-2.924 3.802-8.188 2.339s-5.263 1.17-10.819 7.603C47.862 56.657 37.92 60.458 37.92 60.458l-8.187-1.462s-9.65-4.386-9.65-5.556-8.48 7.895-6.433 11.404c2.047 3.509 6.433 7.895 8.773 10.234 2.339 2.34 3.216 9.065 17.544 7.018 14.328-2.047 19.592-9.064 19.592-9.064s2.631 13.45 10.234 16.082c7.603 2.632 32.457 4.386 32.457 4.386l5.264-17.544s5.848-7.603-2.047-18.715c0 0-.152-6.214-1-10.35-.33-1.608-.766-2.902-1.34-3.393-2.046-1.754-12.865-4.678-12.865-4.678s1.754 5.848 2.631 6.14c.878.293 2.924 10.235 1.755 11.697z" fill="#1F6BD9"/>
            <path d="M55.319 143.94c14.725-1.023 23.299 1.39 27.124 3.229.71.322 1.38.728 1.994 1.21.28.237.415.422.415.533 0 .877 20.176 2.631 27.486.877 7.31-1.754-4.97-39.475-8.187-42.692-3.216-3.216-1.482-14.989-1.482-14.989s-6.413-1.386-8.167-.8c-1.755.584-10.82-.878-14.036-2.633-3.217-1.754-7.31-.584-9.942-1.17-1.176-.26-1.77.18-2.065.746a5.056 5.056 0 0 1-2 2.021c-6.207 3.576-11.19 28.302-14.942 41.972-4.093 14.913 3.802 11.697 3.802 11.697z" fill="#212121"/>
            <path d="M82.443 147.169c.71.322 1.38.728 1.994 1.21.155-2.763 1.05-19.474-.024-19.205l-1.97 17.995z" fill="#000" opacity=".1"/>
            <ellipse fill="#FBBEBE" transform="rotate(-65.099 3.76 39.951)" cx="3.76" cy="39.951" rx="1.44" ry="3.36"/>
        </g>
    </g>
</svg>
