<svg xmlns="http://www.w3.org/2000/svg" width="409" height="327" viewBox="0 0 409 327">
    <g fill="none">
        <ellipse cx="381.212" cy="27.209" fill="#FFE482" rx="27.219" ry="27.209"/>
        <ellipse cx="194.722" cy="316.236" fill="#E6E6E6" rx="184.411" ry="10.647"/>
        <path fill="#3F3D56" d="M343.333 317.511L329.638 317.511 335.882 106.124z"/>
        <path fill="#3F3D56" d="M337.09 146.186L351.792 125.853 336.889 151.219 335.277 148.401zM335.479 166.721L320.777 146.388 335.68 171.754 337.292 168.936z"/>
        <ellipse cx="125.313" cy="192.964" fill="#3F3D56" rx="124.56" ry="124.511"/>
        <ellipse cx="125.313" cy="192.964" fill="#FFF" rx="114.249" ry="114.204"/>
        <ellipse cx="124.9" cy="193.376" fill="#3F3D56" rx="15.261" ry="15.255"/>
        <path fill="#3F3D56" d="M121.601 84.532H128.2V96.901H121.601zM121.601 289.852H128.2V302.221H121.601z"/>
        <path fill="#3F3D56" d="M18.902 187.19H25.499000000000002V199.564H18.902z" transform="rotate(90 22.2 193.376)"/>
        <path fill="#3F3D56" d="M224.302 187.19L230.899 187.19 230.899 199.563 224.302 199.563z" transform="rotate(90 227.6 193.376)"/>
        <path fill="#3F3D56" d="M120.501 199.999L126.141 187.108 196.807 226.231zM109.227 38.356H141.398V75.462H109.227z"/>
        <ellipse cx="125.313" cy="38.356" fill="#3F3D56" rx="37.121" ry="10.307"/>
        <path fill="#FFB8B8" d="M194.81 215.022l-2.062 2.886s-9.486 11.131-9.898 5.772c-.413-5.36 7.011-9.07 7.011-9.07l4.125-2.474.825 2.886zM253.521 224.759l1.727 3.098s6.005 13.334.982 11.413c-5.022-1.921-5.2-10.216-5.2-10.216l-.471-4.785 2.962.49z"/>
        <ellipse cx="244.236" cy="157.267" fill="#2F2E41" rx="12.559" ry="12.554"/>
        <path fill="#FFB8B8" d="M243.067 260.373l1.65 10.72v3.298h9.486v-4.123s.413-7.421-1.237-9.482c-1.65-2.062-9.899-.413-9.899-.413zM226.157 260.373l1.65 10.72v3.298h9.486v-4.123s.412-7.421-1.237-9.482c-1.65-2.062-9.9-.413-9.9-.413z"/>
        <path fill="#1F6BD9" d="M232.54 174.268s-3.648 1.922-1.156 6.295 17.114 49.612 17.114 49.612l8.436-2.393-7.44-28.611-4.26-17.982-12.693-6.921z"/>
        <ellipse cx="242.861" cy="160.806" fill="#FFB8B8" rx="9.486" ry="9.483"/>
        <path fill="#FFB8B8" d="M247.192 162.249l-1.238 19.377-8.661-6.184s2.887-11.544 2.062-12.369l7.837-.824z"/>
        <path fill="#1F6BD9" d="M247.192 179.977l-9.331-6.907s-4.28-1.751-5.517.31c-1.238 2.062-7.424 32.571-4.125 38.343 0 0 17.735 3.71 21.448 1.65l1.65-10.72s2.062-6.597-1.238-10.72l-2.887-11.956z"/>
        <path fill="#1F6BD9" d="M234.818 173.793s-3.3-2.474-6.186 1.649c-2.888 4.123-37.533 36.694-37.533 36.694l5.774 6.596 22.685-18.965 14.435-11.544.825-14.43z"/>
        <path fill="#2F2E41" d="M249.873 213.166s-20.417-3.917-22.479-1.03l-.412 4.535s-4.537 8.658-2.062 22.676c2.474 14.017.824 22.675.824 22.675s11.137-1.236 19.386 0c8.249 1.237 9.486 0 9.486 0l-4.743-48.856zM255.028 272.742l-11.96.412 4.124 30.922s-3.3 13.193.412 14.018c2.58.52 5.205.796 7.837.824 0 0 3.712 3.71 7.836 3.298 2.74-.35 5.394-1.187 7.837-2.473 0 0 .825-2.474-2.062-3.299-2.887-.824-10.724-3.298-12.374-11.956l-1.65-31.746z"/>
        <path fill="#2F2E41" d="M238.118 272.742l-11.961.412 4.124 30.922s-3.3 13.193.413 14.018c2.58.52 5.204.796 7.836.824 0 0 3.712 3.71 7.837 3.298 2.739-.35 5.393-1.187 7.836-2.473 0 0 .825-2.474-2.062-3.299-2.887-.824-10.723-3.298-12.373-11.956l-1.65-31.746z"/>
        <ellipse cx="248.629" cy="144.054" fill="#2F2E41" rx="5.197" ry="5.195"/>
        <path fill="#2F2E41" d="M255.559 141.24c0-2.66-2.01-4.889-4.656-5.166.18-.019.36-.028.541-.028 2.87 0 5.197 2.325 5.197 5.194 0 2.87-2.327 5.195-5.197 5.195-.18 0-.361-.01-.54-.028 2.645-.277 4.654-2.507 4.655-5.167z"/>
        <ellipse cx="242.775" cy="154.605" fill="#2F2E41" rx="8.661" ry="5.195"/>
        <path fill="#F4C92E" d="M379.2 31.935c-.73-12.913-10.704-23.4-23.57-24.782-12.864-1.382-24.84 6.747-28.298 19.21-.32-.01-.64-.024-.964-.024-11.73.003-22.058 7.73-25.365 18.98-7.783-3.418-16.895-1.152-22.169 5.513h82.464c4.861.014 9.518-1.951 12.899-5.443 3.38-3.491 5.194-8.208 5.022-13.064-.005-.13-.012-.26-.019-.39z"/>
        <ellipse cx="310.261" cy="80.453" fill="#139345" rx="7.101" ry="7.098"/>
        <ellipse cx="331.701" cy="63.719" fill="#139345" rx="5.912" ry="5.91"/>
        <ellipse cx="360.558" cy="95.832" fill="#139345" rx="7.101" ry="7.098"/>
        <ellipse cx="306.711" cy="128.364" fill="#139345" rx="7.101" ry="7.098"/>
        <ellipse cx="360.558" cy="169.177" fill="#139345" rx="7.101" ry="7.098"/>
        <path fill="#139345" d="M349.303 306.041c.003-.077.012-.152.012-.23.003-2.416-1.225-4.668-3.26-5.974-2.035-1.306-4.595-1.485-6.792-.475-2.085-2.406-5.52-3.125-8.395-1.757s-4.484 4.486-3.931 7.62c-.037 0-.072-.005-.108-.005-3.105-.005-5.853 2.007-6.784 4.968-.932 2.96.169 6.183 2.717 7.956 2.548 1.773 5.953 1.685 8.407-.217 1.147 2.233 3.389 3.695 5.896 3.843 2.507.147 4.905-1.04 6.307-3.123 2.31 1.68 5.404 1.811 7.848.332 2.444-1.48 3.762-4.28 3.344-7.106-.419-2.825-2.492-5.124-5.26-5.832z"/>
        <ellipse cx="367.067" cy="140.786" fill="#139345" rx="2.959" ry="2.957"/>
        <ellipse cx="348.131" cy="69.807" fill="#139345" rx="2.959" ry="2.957"/>
        <ellipse cx="338.072" cy="143.152" fill="#139345" rx="2.959" ry="2.957"/>
        <ellipse cx="340.439" cy="140.194" fill="#139345" rx="2.959" ry="2.957"/>
        <ellipse cx="342.214" cy="137.237" fill="#139345" rx="2.959" ry="2.957"/>
        <ellipse cx="335.113" cy="162.079" fill="#139345" rx="2.959" ry="2.957"/>
        <ellipse cx="378.901" cy="195.203" fill="#139345" rx="2.959" ry="2.957"/>
        <ellipse cx="315.587" cy="196.977" fill="#139345" rx="2.959" ry="2.957"/>
        <ellipse cx="319.137" cy="105.888" fill="#139345" rx="2.959" ry="2.957"/>
        <ellipse cx="332.747" cy="159.122" fill="#139345" rx="2.959" ry="2.957"/>
        <ellipse cx="329.788" cy="154.39" fill="#139345" rx="2.959" ry="2.957"/>
    </g>
</svg>
